HIERARCHY
ROOT pelvis
{
  OFFSET 0 100 0
  CHANNELS 6 Xposition Yposition Zposition Zrotation Xrotation Yrotation
  JOINT pelvis_right_femur
  {
    OFFSET -10.78128 -3.44521 -0.5502486
    CHANNELS 3 Zrotation Xrotation Yrotation
    JOINT right_femur_tibia
    {
      OFFSET -0.8047443 -44.0398 -0.1307829
      CHANNELS 3 Zrotation Xrotation Yrotation
      JOINT right_tibia_foot
      {
        OFFSET 3.006224 -47.83518 -5
        CHANNELS 3 Zrotation Xrotation Yrotation
        End Site
        {
          OFFSET 0 -5 15
        }
      }
    }
  }
  JOINT pelvis_left_femur
  {
    OFFSET 10.78128 -3.44521 -0.5502486
    CHANNELS 3 Zrotation Xrotation Yrotation
    JOINT left_femur_tibia
    {
      OFFSET 0.8047443 -44.0398 -0.1307829
      CHANNELS 3 Zrotation Xrotation Yrotation
      JOINT left_tibia_foot
      {
        OFFSET -4.370144 -48.10324 -4.275266
        CHANNELS 3 Zrotation Xrotation Yrotation
        End Site
        {
          OFFSET 0 -5 15
        }
      }
    }
  }
  JOINT pelvis_spine1
  {
    OFFSET 0 6.468898 -3.129235
    CHANNELS 3 Zrotation Xrotation Yrotation
    JOINT spine1
    {
      OFFSET 0 23.15396 4.99043
      CHANNELS 3 Zrotation Xrotation Yrotation
      JOINT spine2
      {
        OFFSET 0 20.79997 -5.064912
        CHANNELS 3 Zrotation Xrotation Yrotation
        JOINT neck
        {
          OFFSET 0 14.38658 9.616178
          CHANNELS 3 Zrotation Xrotation Yrotation
          End Site
          {
            OFFSET 0 20 0
          }
        }
      }
      JOINT right_manubrium
      {
        OFFSET -5.722621 16.35077 3.967754
        CHANNELS 3 Zrotation Xrotation Yrotation
        JOINT right_clavicle
        {
          OFFSET -13.16364 1.694482 -4.693211
          CHANNELS 3 Zrotation Xrotation Yrotation
          JOINT right_humerus
          {
            OFFSET -28.5034 -0.3100689 -2.792744
            CHANNELS 3 Zrotation Xrotation Yrotation
            JOINT right_radius
            {
              OFFSET -25.15693 0.02248979 -1.271978
              CHANNELS 3 Zrotation Xrotation Yrotation
              End Site
              {
                OFFSET -15 0 0
              }
            }
          }
        }
      }
      JOINT left_manubrium
      {
        OFFSET 5.722621 16.35077 3.967754
        CHANNELS 3 Zrotation Xrotation Yrotation
        JOINT left_clavicle
        {
          OFFSET 13.16364 1.694482 -4.693211
          CHANNELS 3 Zrotation Xrotation Yrotation
          JOINT left_humerus
          {
            OFFSET 29.39168 -1.063119 -2.237045
            CHANNELS 3 Zrotation Xrotation Yrotation
            JOINT left_radius
            {
              OFFSET 24.59957 -0.9528479 0.9047498
              CHANNELS 3 Zrotation Xrotation Yrotation
              End Site
              {
                OFFSET 15 -0 -0
              }
            }
          }
        }
      }
    }
  }
}
MOTION
Frames: 15
Frame Time: 0.0416666666667
0 103.5113 0 2.746683 -2.478892 0.3224402 0.8069465 -9.580048 7.864751 -0 36.85904 -0 -5.22033 -18.6479 -3.710331 -8.249787 11.53597 -23.87597 -0 4.313257 -0 9.100144 -15.36488 26.4121 -1.705932 -3.234258 5.791417 2.571998 10.26385 -7.395864 1.742256 22.10248 5.222558 1.846546 -25.40653 9.330194 5.971192 -19.63813 10.34995 86.03992 34.74647 -20.23019 -0 0 15.55893 -5.857147 9.020193 2.228872 6.04391 -21.04187 -1.291305 -96.40944 26.76103 25.20077 0 0 -13.39457 10.345 17.92674 3.454514
0.2769512 103.4691 1.368666 2.069357 -1.25239 0.4179224 1.836071 -12.79767 8.641237 -0 37.65131 -0 -4.721151 -17.88664 -3.618915 -7.834622 11.31585 -23.76538 -0 4.442028 -0 8.003734 -16.25929 26.19894 -1.701687 -3.240876 5.871087 2.491478 10.28937 -7.300706 1.769279 22.19788 5.109103 1.788161 -25.2493 9.265041 5.970044 -19.67653 10.29277 85.92268 34.77996 -20.02606 -0 0 15.67491 -5.911357 9.030311 2.241404 5.976275 -20.97573 -1.335292 -96.54562 26.86611 25.40269 0 0 -13.14309 10.2461 18.03918 3.598448
0.5121804 103.3686 2.972478 1.083814 -0.4273042 0.4904006 3.230213 -17.44543 8.113498 -0 36.47846 -0 -5.357661 -15.69946 -3.184302 -7.116236 11.42641 -23.04302 -0 4.940846 -0 6.247546 -18.05471 25.34748 -1.743406 -3.049459 5.508589 2.854276 10.21254 -7.621384 1.590807 21.84822 5.591784 2.014792 -25.89954 9.471541 5.909189 -19.40874 10.53494 86.47207 34.8984 -20.74976 -0 0 14.72022 -5.844916 8.924467 2.52173 5.987428 -21.10508 -1.428848 -95.69226 26.48105 24.46888 0 0 -14.64246 10.46586 16.97145 3.225945
0.7357426 103.1403 4.847821 0.2866076 0.2719546 0.5460935 4.454868 -21.66997 7.759607 -0 34.37886 -0 -5.8161 -13.57087 -2.885766 -6.544981 11.57628 -22.23979 -0 5.34494 -0 5.163275 -19.60506 24.5802 -1.786199 -2.901361 5.227314 3.138492 10.15794 -7.859817 1.445818 21.61048 5.942521 2.164254 -26.39462 9.62218 5.846739 -19.19847 10.70402 86.93152 34.98732 -21.32769 -0 0 13.92443 -5.792545 8.809732 2.759 5.943717 -21.19171 -1.563896 -95.0494 26.26019 23.79705 0 0 -15.83637 10.56244 16.10131 3.036691
0.965646 102.7331 7.052623 -0.3211716 1.00404 0.6106706 5.535956 -25.64903 7.461773 -0 31.30105 -0 -6.116905 -11.42749 -2.592009 -6.166251 11.79461 -21.3391 -0 5.703452 -0 4.912772 -20.89099 23.95955 -1.838164 -2.737919 4.922424 3.443613 10.1052 -8.106045 1.282326 21.37925 6.303515 2.308302 -26.90654 9.770442 5.767545 -18.96323 10.87322 87.45914 35.08793 -21.96419 -0 0 13.01173 -5.754342 8.668208 3.046482 5.854361 -21.27509 -1.764716 -94.35455 26.0704 23.09767 0 0 -17.1613 10.59734 15.11518 2.923689
1.20669 102.1327 9.638457 -0.7389349 1.730322 0.726646 6.380421 -29.12473 7.06569 -0 27.63452 -0 -6.386553 -9.318996 -2.246754 -5.966804 12.13949 -20.39976 -0 6.165893 -0 5.149732 -21.90627 23.36931 -1.889227 -2.566789 4.623886 3.730221 10.06126 -8.330673 1.116576 21.17092 6.642515 2.442596 -27.35877 9.890893 5.680473 -18.71698 11.03028 87.9969 35.20282 -22.57927 -0 0 12.07077 -5.769454 8.535252 3.378809 5.736448 -21.34889 -2.006432 -93.64564 25.89398 22.40134 0 0 -18.49713 10.56797 14.09742 2.891498
1.457191 101.376 12.65463 -1.025319 2.455008 0.9372801 7.021379 -32.01679 6.588377 -0 23.85134 -0 -6.69761 -7.271581 -1.84912 -5.891545 12.62608 -19.4412 -0 6.95041 -0 5.597908 -22.58692 22.7117 -1.94106 -2.393691 4.334325 3.990704 10.03207 -8.532311 0.9510867 20.99172 6.949929 2.563183 -27.73043 9.973977 5.591555 -18.46083 11.17419 88.54161 35.32606 -23.16989 -0 0 11.11737 -5.854448 8.417938 3.756179 5.591447 -21.41255 -2.28656 -92.92966 25.73107 21.71096 0 0 -19.80604 10.46107 13.06908 2.952336
1.712351 100.5422 16.14667 -1.255673 3.121311 1.274537 7.513138 -34.19312 6.057952 -0 20.42379 -0 -7.145551 -5.34849 -1.426431 -5.859054 13.24744 -18.45526 -0 8.3231 -0 5.934299 -22.83681 21.843 -1.994307 -2.227061 4.066289 4.207876 10.02521 -8.70212 0.7932611 20.85272 7.206667 2.663457 -27.986 10.00482 5.509124 -18.20333 11.30079 89.06798 35.4508 -23.70571 -0 0 10.19758 -6.032651 8.329924 4.173741 5.424507 -21.46156 -2.592749 -92.22959 25.58168 21.04545 0 0 -21.00936 10.26685 12.077 3.113982
1.96747 99.7453 20.15667 -1.511392 3.649733 1.747498 7.937384 -35.50915 5.53422 -0 17.74619 -0 -7.789527 -3.658601 -1.028764 -5.775191 13.94837 -17.41376 -0 10.58404 -0 5.827483 -22.52756 20.59573 -2.053958 -2.078413 3.833908 4.366218 10.04943 -8.83118 0.6499106 20.77001 7.390128 2.731719 -28.09558 9.969297 5.442185 -17.95788 11.40493 89.5474 35.56708 -24.15362 -0 0 9.361323 -6.32386 8.276361 4.624996 5.233212 -21.4856 -2.91548 -91.58046 25.46165 20.4436 0 0 -22.01123 9.967189 11.17038 3.393645
2.220774 99.11938 24.71975 -1.857603 3.939901 2.327804 8.370056 -35.78244 5.079169 -0 16.08456 -0 -8.616631 -2.355215 -0.7208345 -5.545985 14.59597 -16.27808 -0 14.06639 -0 4.954575 -21.48885 18.80327 -2.127095 -1.957883 3.654693 4.449076 10.11198 -8.907267 0.5275339 20.75995 7.478215 2.756852 -28.03156 9.853735 5.398194 -17.74213 11.48223 89.93861 35.66765 -24.4624 -0 0 8.666914 -6.753765 8.260281 5.109863 5.012383 -21.46846 -3.242079 -91.02005 25.38765 19.95362 0 0 -22.70628 9.543571 10.39422 3.806978
2.476737 98.80026 29.85179 -2.323257 3.899091 2.93474 8.861893 -34.81606 4.765627 -0 15.53624 -0 -9.488537 -1.60774 -0.5798534 -5.093701 14.92777 -15.02202 -0 19.1148 -0 3.074896 -19.51439 16.38485 -2.223265 -1.871977 3.546756 4.441214 10.21564 -8.916405 0.4301928 20.83484 7.455774 2.732196 -27.77442 9.647691 5.379674 -17.57631 11.53124 90.19079 35.74874 -24.56443 -0 0 8.174156 -7.357708 8.281319 5.641906 4.755221 -21.38985 -3.556782 -90.58016 25.37143 19.62504 0 0 -22.99895 8.978263 9.775773 4.365758
2.747764 98.89898 35.52228 -2.870703 3.482898 3.429758 9.391374 -32.44549 4.659716 -0 15.95995 -0 -10.1365 -1.549929 -0.6696771 -4.394603 14.50349 -13.66208 -0 25.99662 -0 0.1982644 -16.43903 13.49968 -2.352 -1.820333 3.526652 4.330512 10.35472 -8.844974 0.3583126 20.9951 7.322973 2.662083 -27.3178 9.347344 5.380004 -17.48113 11.556 90.24643 35.80933 -24.37803 -0 0 7.940389 -8.184182 8.338983 6.252608 4.460572 -21.23199 -3.836841 -90.27524 25.40599 19.49258 0 0 -22.83022 8.264068 9.313689 5.066722
3.049139 99.46973 41.61325 -3.352372 2.735699 3.643971 9.782688 -28.6098 4.739381 -0 16.87001 -0 -10.29744 -2.224285 -0.9723178 -3.550944 12.73751 -12.28425 -0 34.68953 -0 -3.19554 -12.38651 10.69204 -2.518281 -1.794267 3.606682 4.111666 10.51316 -8.684269 0.3082101 21.2219 7.102411 2.566183 -26.67693 8.960405 5.381208 -17.47528 11.56757 90.0517 35.84631 -23.82392 -0 0 8.013516 -9.285833 8.43479 6.984234 4.140886 -20.98924 -4.051314 -90.09627 25.45737 19.56315 0 0 -22.20618 7.417001 8.974373 5.880908
3.383856 100.4819 47.89014 -3.480432 1.767535 3.460116 9.664301 -23.42232 4.765664 -0 17.39462 -0 -10.02307 -3.544848 -1.311129 -2.853153 9.144258 -11.03137 -0 44.5402 -0 -6.10961 -8.130142 8.787164 -2.715776 -1.77803 3.79281 3.790569 10.66768 -8.435563 0.27375 21.47536 6.838633 2.477468 -25.89498 8.509879 5.357524 -17.57204 11.58208 89.57473 35.84776 -22.85707 -0 0 8.421146 -10.69219 8.573274 7.866337 3.826318 -20.6768 -4.166735 -90.01543 25.46903 19.81256 0 0 -21.21431 6.487304 8.702736 6.749534
3.72845 101.8074 54.04741 -2.928623 0.6312679 2.919787 8.689844 -17.24045 4.351985 -0 16.60806 -0 -9.797311 -5.252561 -1.403152 -2.649224 3.785827 -10.00744 -0 53.96598 -0 -7.472582 -5.00509 8.378183 -2.923657 -1.754386 4.083585 3.38592 10.79718 -8.11125 0.2500241 21.70632 6.583469 2.429468 -25.03799 8.031817 5.286224 -17.77566 11.61373 88.82437 35.79086 -21.49898 -0 0 9.158683 -12.37479 8.758616 8.886797 3.556243 -20.32804 -4.162104 -90.00474 25.38694 20.20169 0 0 -20.00257 5.552819 8.447805 7.599205
